# Blender 3.5.0
# www.blender.org
mtllib PlayerBullet.mtl
o 立方体
v 0.500000 -0.500000 -1.000000
v 0.500000 0.500000 -1.000000
v 0.000000 0.000000 1.000000
v -0.500000 -0.500000 -1.000000
v -0.500000 0.500000 -1.000000
vn 0.9701 -0.0000 0.2425
vn -0.9701 -0.0000 0.2425
vn -0.0000 -0.0000 -1.0000
vn -0.0000 -0.9701 0.2425
vn -0.0000 0.9701 0.2425
vt 0.375000 0.000000
vt 0.125000 0.750000
vt 0.375000 1.000000
vt 0.625000 0.000000
vt 0.875000 0.750000
vt 0.625000 1.000000
vt 0.375000 0.250000
vt 0.625000 0.500000
vt 0.375000 0.500000
vt 0.875000 0.500000
vt 0.375000 0.750000
vt 0.625000 0.750000
s 0
usemtl マテリアル
f 1/1/1 2/4/1 3/7/1
f 3/8/2 5/12/2 4/11/2
f 5/12/3 1/3/3 4/11/3
f 3/9/4 4/11/4 1/2/4
f 3/10/5 2/5/5 5/12/5
f 5/12/3 2/6/3 1/3/3
